<svg width="55" height="11" fill="none" xmlns="http://www.w3.org/2000/svg"><path d="M53.953 1.661c-.691-.494-1.738-.743-3.11-.743H47.25l-1.335 7.567h-4.707l.302-1.717h2.836l.336-1.928-2.834.004.303-1.71h2.92l.39-2.216h-5.932l-1.268 7.178h-2.176L37.36.918h-3.1l-1.268 7.178h-2.12L32.15.918h-3.098l-1.338 7.567h-4.74l.3-1.717h2.846l.336-1.917-2.844-.003.302-1.713h2.953l.386-2.217H8.771L7.72 6.914 5.624.918H2.407l-1.73 9.786h3.071l1.048-6.162 2.033 6.162h11.01l1.338-7.57H20.9l-1.338 7.57H48.53l.84-4.778 1.358 4.778h3.074l-1.408-3.905.322-.072c.71-.159 1.263-.5 1.648-1.01.385-.516.581-1.178.581-1.973 0-.926-.325-1.607-.992-2.083zM15.166 8.485h-4.702l.304-1.717h2.95l.334-1.934H11.13l.28-1.699h4.697l-.942 5.35zm36.256-3.296c-.31.225-.757.335-1.37.335h-.608l.467-2.626h.446c.51 0 .88.085 1.136.258.2.137.438.406.438.915 0 .616-.277.947-.51 1.118h.001z" fill="#fff"/></svg>