<svg width="49" height="14" fill="none" xmlns="http://www.w3.org/2000/svg"><path d="M42.853 2.824c-.532-.303-1.407-.454-2.586-.454-.57 0-1.18.038-1.75.151-.419.076-.457.076-.723.152-.532.113-.646.68-.646.68l-.19.719c-.115.454.151.454.266.416.228-.076.38-.151.875-.265.456-.113.95-.189 1.369-.189.57 0 1.027.076 1.293.19.304.113.419.34.419.642 0 .076 0 .151-.038.19-.038.037-.077.113-.19.113-.837.037-1.408.113-2.13.226-.686.114-1.332.265-1.827.492a2.978 2.978 0 00-1.255.983c-.266.416-.418.908-.418 1.513 0 .567.19 1.021.57 1.362.38.34.913.529 1.522.529.38 0 .684-.038.913-.076a2.43 2.43 0 00.684-.227c.19-.075.38-.189.609-.34.228-.151.342-.227.533-.378l-.038.227c-.077.265.114.491.38.53h1.369c.267-.039.57-.265.609-.53l1.065-4.5c.038-.114.038-.227.038-.379 0-.151.038-.264.038-.34.076-.643-.19-1.135-.76-1.437zm-2.548 5.408c-.19.113-.38.189-.57.302a1.945 1.945 0 01-.762.152c-.342 0-.646-.038-.837-.152-.19-.113-.266-.264-.266-.53 0-.302.076-.529.19-.718.153-.189.343-.302.61-.416.265-.075.57-.15.95-.227.342-.037.99-.113 1.065-.113.076 0 .152-.038.114.19 0 .113-.19.869-.304 1.21.038.113-.114.264-.19.302zM24.747 2.481c-.304 0-.723.265-.913.568 0 0-2.054 3.517-2.282 3.857-.114.19-.228.076-.228 0s-.647-3.857-.647-3.857c-.076-.303-.38-.568-.799-.568h-1.293c-.304 0-.495.265-.419.53 0 0 .99 5.559 1.18 6.845.114.718 0 .832 0 .832l-1.294 2.231c-.19.303-.076.53.229.53h1.483c.304 0 .723-.227.913-.53l5.782-9.643s.532-.832.038-.832c-.342.037-1.75.037-1.75.037zM6.642 4.45c-.419.302-1.027.491-1.826.491h-.38a.458.458 0 01-.457-.53l.456-1.89c.077-.303.38-.567.685-.53h.457c.532 0 .95.076 1.255.265.266.19.418.454.418.87.038.567-.19.983-.608 1.324zm3.08-2.874c-.19-.34-.456-.643-.798-.832C8.582.517 8.164.365 7.67.29 7.212.176 6.642.138 5.995.138H2.99c-.304 0-.609.265-.685.53L.251 9.442c-.076.302.114.53.419.53h1.483a.73.73 0 00.685-.53l.494-2.118a.73.73 0 01.685-.53h.418c1.75 0 3.12-.378 4.109-1.096.989-.719 1.483-1.664 1.483-2.837 0-.491-.114-.945-.304-1.285zM32.81 4.487c-.418.303-1.027.454-1.826.454h-.342a.458.458 0 01-.456-.53l.418-1.853a.73.73 0 01.685-.529h.456c.57 0 .951.113 1.256.265.266.189.418.454.418.87.038.529-.19.983-.609 1.323zm3.12-2.874c-.19-.34-.457-.643-.8-.832-.342-.227-.76-.378-1.255-.454-.494-.075-1.065-.113-1.711-.151h-3.005c-.305 0-.609.265-.685.53l-2.016 8.773c-.076.303.114.53.418.53h1.446a.73.73 0 00.684-.53l.495-2.118c.076-.302.38-.567.685-.53h.418c1.75 0 3.12-.377 4.108-1.096.99-.718 1.484-1.664 1.484-2.836 0-.53-.114-.946-.267-1.286zM16.682 2.824c-.533-.303-1.407-.454-2.587-.454-.57 0-1.179.038-1.75.151-.418.076-.456.076-.722.152-.533.113-.647.68-.647.68l-.19.719c-.114.454.152.454.266.416.228-.076.38-.151.875-.265a5.988 5.988 0 011.37-.189c.57 0 1.026.076 1.293.19.304.113.418.34.418.642 0 .076 0 .151-.038.19-.038.075-.076.113-.19.113a17.45 17.45 0 00-2.13.226c-.685.114-1.332.265-1.826.492a2.978 2.978 0 00-1.255.983c-.267.416-.419.908-.419 1.513 0 .567.19 1.021.57 1.362.381.34.914.529 1.522.529.38 0 .685-.038.913-.076a2.43 2.43 0 00.685-.227c.19-.075.38-.189.609-.34.228-.151.342-.227.532-.378l-.038.227c-.076.265.114.491.38.53h1.37c.266-.039.57-.265.609-.53l1.065-4.5c.038-.114.038-.227.038-.379 0-.151.038-.264.038-.34.076-.643-.229-1.135-.761-1.437zm-2.549 5.37c-.19.113-.38.19-.57.303a1.945 1.945 0 01-.761.15c-.342 0-.647-.037-.837-.15-.19-.114-.266-.265-.266-.53 0-.302.076-.53.228-.718.152-.19.342-.303.609-.416a11.5 11.5 0 01.95-.227c.343-.038.99-.114 1.066-.114.076 0 .152-.038.114.19 0 .113-.19.87-.304 1.21-.039.113-.153.264-.229.302zM47.84.251h-1.293a.73.73 0 00-.685.53v.038s-.038.113-.076.34l-1.788 7.98c-.037.189-.076.302-.076.34-.076.265.114.492.38.53h1.332a.73.73 0 00.685-.53v-.038l1.94-8.698c.076-.265-.114-.492-.419-.492z" fill="#fff"/></svg>