<svg width="39" height="12" fill="none" xmlns="http://www.w3.org/2000/svg"><path d="M30.426 1.165l3.088-.5v10.928h-3.088V1.165zm4.533 0v10.382h3.09V.62l-3.09.546zm-8.968 10.428h3.09V3.579h-3.09v8.014zM5.416 4.717c-.399-.045-1.296-.091-1.296-.82 0-.91 1.296-.91 1.794-.91.847 0 1.993.227 2.79.455 0 0 .448.137.847.273h.05V1.257h-.05C8.554.937 7.458.665 5.416.665 1.928.665.683 2.53.683 4.125c0 .91.448 3.096 4.434 3.324.348 0 1.245.046 1.245.82 0 .637-.747 1.001-1.993 1.001-1.345 0-2.69-.318-3.487-.637v2.55c1.196.273 2.54.41 4.135.41 3.438 0 4.982-1.776 4.982-3.506 0-1.913-1.694-3.188-4.583-3.37zm18.782-1.23c-2.89.092-4.334 1.276-4.334 3.598v4.508h3.138V7.95c0-1.412.2-2.004 2.043-2.049V3.533c-.299-.09-.847-.045-.847-.045zm-8.42.092c-.05.182-.548 1.457-1.793 2.777V.665l-3.189.592v10.336h3.189V8.405c.946 1.275 1.395 3.188 1.395 3.188h3.836c-.399-1.457-2.043-4.098-2.043-4.098 1.495-1.73 2.143-3.598 2.242-3.87h-3.637v-.046zm11.758-.729c.847 0 1.544-.637 1.544-1.411S28.383.027 27.536.027c-.847 0-1.545.638-1.545 1.412 0 .774.698 1.411 1.545 1.411z" fill="#fff"/></svg>