<svg width="101" height="26" fill="none" xmlns="http://www.w3.org/2000/svg"><path d="M26.545 9.31h10.218v1.966H32.74V22.36h-2.205V11.276h-4.007l.017-1.966zm9.78 3.602h1.886v1.827h.033c.068-.261.186-.505.354-.748.168-.244.37-.47.623-.662.235-.209.505-.365.808-.487a2.28 2.28 0 01.892-.191c.236 0 .404.017.488.017.084.018.185.035.27.035v2c-.135-.034-.287-.051-.438-.069-.152-.017-.286-.035-.438-.035-.337 0-.656.07-.96.21a2.44 2.44 0 00-.79.608 3.335 3.335 0 00-.54 1.01c-.134.4-.201.87-.201 1.391v4.489h-2.02l.033-9.395zm14.612 9.447H48.95v-1.322h-.034c-.253.487-.623.852-1.111 1.148a2.862 2.862 0 01-1.498.435c-1.196 0-2.07-.296-2.61-.922-.538-.609-.808-1.549-.808-2.784v-6.002h2.02v5.793c0 .836.152 1.427.472 1.758.303.348.74.522 1.296.522.42 0 .774-.07 1.06-.21.287-.138.522-.312.69-.538.186-.227.304-.505.388-.818.084-.313.118-.661.118-1.027v-5.48h2.02v9.447h-.017zm3.434-3.027c.067.609.286 1.026.673 1.287.387.244.859.366 1.397.366.185 0 .404-.018.64-.053.236-.034.471-.087.673-.174.22-.087.388-.208.522-.382a.911.911 0 00.185-.644c-.017-.261-.1-.487-.286-.661-.185-.174-.404-.296-.673-.418a5.69 5.69 0 00-.943-.26c-.353-.07-.707-.157-1.077-.244s-.74-.192-1.094-.314a3.101 3.101 0 01-.943-.504 2.152 2.152 0 01-.657-.8c-.168-.331-.252-.714-.252-1.2 0-.523.118-.94.37-1.288.236-.348.556-.627.926-.835.37-.21.791-.366 1.246-.453a6.906 6.906 0 011.296-.122c.471 0 .926.053 1.347.157.42.104.825.26 1.161.505.354.226.64.539.859.904.235.366.37.818.437 1.34h-2.104c-.1-.505-.32-.835-.656-1.01a2.637 2.637 0 00-1.196-.26c-.134 0-.32.017-.505.035a2.89 2.89 0 00-.555.139c-.168.07-.32.174-.438.296a.709.709 0 00-.185.504.78.78 0 00.253.61c.168.156.387.278.673.4.27.104.59.19.943.26s.724.157 1.094.244c.37.087.724.191 1.077.313.354.122.674.278.943.505.27.208.505.47.673.782.169.314.253.714.253 1.166 0 .557-.118 1.027-.37 1.427a3.197 3.197 0 01-.96.957 4.67 4.67 0 01-1.313.54 6.84 6.84 0 01-1.431.173c-.572 0-1.111-.07-1.6-.209a4.013 4.013 0 01-1.279-.609 2.898 2.898 0 01-.841-1.026c-.202-.4-.32-.887-.337-1.462h2.037v.018h.017zm6.65-6.42h1.53v-2.854h2.02v2.836h1.819v1.549h-1.818v5.045c0 .227.017.4.034.575.016.156.067.295.117.4a.664.664 0 00.287.243c.134.052.303.087.538.087.135 0 .286 0 .421-.017.135-.018.286-.035.42-.07v1.618a8.394 8.394 0 01-.656.07c-.218.035-.42.035-.656.035-.539 0-.96-.052-1.28-.157a1.825 1.825 0 01-.757-.452 1.637 1.637 0 01-.37-.748 6.13 6.13 0 01-.118-1.044V14.46H61.02v-1.583.035zm6.783 0h1.902v1.287h.034c.286-.556.673-.94 1.178-1.183a3.713 3.713 0 011.65-.365c.724 0 1.347.122 1.885.4.539.26.977.609 1.33 1.079.353.452.623.991.791 1.6.169.61.27 1.27.27 1.949 0 .644-.085 1.253-.236 1.844-.169.592-.404 1.131-.724 1.583a3.61 3.61 0 01-1.229 1.096c-.505.279-1.077.418-1.75.418-.287 0-.59-.035-.876-.087a3.635 3.635 0 01-.841-.26 3.002 3.002 0 01-.741-.47 2.623 2.623 0 01-.573-.662h-.033v4.715h-2.02V12.912h-.017zm7.053 4.732c0-.417-.05-.835-.168-1.235a3.2 3.2 0 00-.488-1.061 2.73 2.73 0 00-.791-.749 2.098 2.098 0 00-1.095-.278c-.841 0-1.481.296-1.919.905-.42.609-.64 1.426-.64 2.435 0 .488.051.923.169 1.323.118.4.27.748.505 1.044.219.296.488.522.808.696.32.174.673.26 1.094.26.472 0 .842-.104 1.162-.295a2.75 2.75 0 00.79-.748 3.09 3.09 0 00.438-1.062c.085-.417.135-.817.135-1.235zM78.41 9.31h2.02v1.966h-2.02V9.31zm0 3.602h2.02v9.447h-2.02v-9.447zm3.82-3.602h2.02v13.05h-2.02V9.31zm8.181 13.31c-.724 0-1.38-.122-1.952-.383a4.433 4.433 0 01-1.448-1.026 4.505 4.505 0 01-.892-1.583 6.373 6.373 0 01-.32-2.001c0-.714.1-1.375.32-1.984.202-.609.505-1.13.892-1.583a4.038 4.038 0 011.448-1.027 4.966 4.966 0 011.952-.382c.724 0 1.38.122 1.953.383a4.19 4.19 0 011.448 1.026c.387.435.69.974.892 1.583.202.61.32 1.27.32 1.984 0 .73-.101 1.392-.32 2-.219.61-.505 1.131-.892 1.584a4.037 4.037 0 01-1.448 1.026 4.906 4.906 0 01-1.953.383zm0-1.653c.438 0 .842-.104 1.162-.296a2.47 2.47 0 00.808-.765c.219-.313.37-.679.471-1.061a4.923 4.923 0 000-2.419 3.17 3.17 0 00-.471-1.061 2.59 2.59 0 00-.808-.748 2.313 2.313 0 00-1.162-.296c-.437 0-.841.104-1.161.296-.337.191-.59.452-.808.748-.22.313-.37.661-.472 1.061a4.889 4.889 0 000 2.419c.101.4.253.748.472 1.06.219.314.488.575.808.766.336.21.724.296 1.161.296zm5.219-8.055h1.532v-2.854h2.02v2.836H101v1.549h-1.819v5.045c0 .227.017.4.034.575.017.156.067.295.118.4a.663.663 0 00.286.243c.135.052.303.087.539.087.135 0 .286 0 .421-.017.134-.018.286-.035.421-.07v1.618c-.219.035-.438.052-.657.07-.219.035-.42.035-.657.035-.538 0-.959-.052-1.279-.157a1.825 1.825 0 01-.757-.452 1.637 1.637 0 01-.37-.748 6.13 6.13 0 01-.118-1.044V14.46H95.63v-1.583.035z" fill="#fff"/><path d="M24.19 9.31h-9.242L12.103.23 9.242 9.31 0 9.293l7.474 5.62-2.862 9.082 7.474-5.62 7.475 5.62-2.845-9.082L24.19 9.31z" fill="#00B67A"/><path d="M17.355 16.965l-.64-2.053-4.611 3.463 5.252-1.41z" fill="#005128"/></svg>